<svg width="33" height="34" viewBox="0 0 33 34" fill="none" xmlns="http://www.w3.org/2000/svg">
<path d="M32.5 16.7121C32.5 25.5493 25.3365 32.7133 16.5 32.7133C7.66348 32.7133 0.5 25.5493 0.5 16.7121C0.5 7.87487 7.66348 0.710938 16.5 0.710938C25.3365 0.710938 32.5 7.87487 32.5 16.7121Z" stroke="#EB8347"/>
<g clip-path="url(#clip0_3157_4432)">
<path d="M26.0025 17.2741C26.0025 11.7163 21.525 7.21094 16.0025 7.21094C10.4775 7.21219 6 11.7163 6 17.2754C6 22.297 9.6575 26.4598 14.4375 27.2148V20.1831H11.9V17.2754H14.44V15.0565C14.44 12.5351 15.9338 11.1425 18.2175 11.1425C19.3125 11.1425 20.4563 11.3387 20.4563 11.3387V13.8139H19.195C17.9538 13.8139 17.5663 14.5902 17.5663 15.3865V17.2741H20.3388L19.8963 20.1818H17.565V27.2136C22.345 26.4585 26.0025 22.2957 26.0025 17.2741Z" fill="#EB8347"/>
</g>
<defs>
<clipPath id="clip0_3157_4432">
<rect width="20" height="20.0014" fill="white" transform="translate(6 7.21094)"/>
</clipPath>
</defs>
</svg>
