<svg width="33" height="34" viewBox="0 0 33 34" fill="none" xmlns="http://www.w3.org/2000/svg">
<path d="M32.5 16.7121C32.5 25.5493 25.3365 32.7133 16.5 32.7133C7.66348 32.7133 0.5 25.5493 0.5 16.7121C0.5 7.87487 7.66348 0.710938 16.5 0.710938C25.3365 0.710938 32.5 7.87487 32.5 16.7121Z" stroke="#EB8347"/>
<path fill-rule="evenodd" clip-rule="evenodd" d="M12.2234 8.09797C13.2009 8.05297 13.5126 8.04297 16.0026 8.04297C18.4926 8.04297 18.8043 8.0538 19.7809 8.09797C20.7576 8.14214 21.4243 8.29799 22.0076 8.52384C22.6184 8.75469 23.1726 9.11554 23.6309 9.58224C24.0976 10.0398 24.4576 10.5931 24.6876 11.2049C24.9143 11.7882 25.0693 12.4549 25.1143 13.43C25.1593 14.4092 25.1693 14.7209 25.1693 17.2103C25.1693 19.7005 25.1584 20.0121 25.1143 20.9897C25.0701 21.9648 24.9143 22.6315 24.6876 23.2149C24.4576 23.8267 24.097 24.3809 23.6309 24.8391C23.1726 25.3058 22.6184 25.6659 22.0076 25.8959C21.4243 26.1226 20.7576 26.2776 19.7826 26.3226C18.8043 26.3676 18.4926 26.3776 16.0026 26.3776C13.5126 26.3776 13.2009 26.3668 12.2234 26.3226C11.2484 26.2784 10.5818 26.1226 9.99844 25.8959C9.3867 25.6658 8.83245 25.3052 8.37427 24.8391C7.90792 24.3813 7.54703 23.8273 7.31677 23.2157C7.09094 22.6323 6.93594 21.9656 6.89094 20.9905C6.84594 20.0113 6.83594 19.6996 6.83594 17.2103C6.83594 14.7201 6.84677 14.4084 6.89094 13.4317C6.9351 12.4549 7.09094 11.7882 7.31677 11.2049C7.54737 10.5932 7.90854 10.0392 8.3751 9.58141C8.83264 9.11513 9.38633 8.75422 9.9976 8.52384C10.5809 8.29799 11.2476 8.14298 12.2226 8.09797H12.2234ZM19.7068 9.74809C18.7401 9.70392 18.4501 9.69475 16.0026 9.69475C13.5551 9.69475 13.2651 9.70392 12.2984 9.74809C11.4043 9.78892 10.9193 9.9381 10.5959 10.0639C10.1684 10.2306 9.8626 10.4281 9.54177 10.749C9.23764 11.0449 9.00359 11.4051 8.85677 11.8032C8.73094 12.1266 8.58177 12.6116 8.54094 13.5059C8.49677 14.4726 8.4876 14.7626 8.4876 17.2103C8.4876 19.658 8.49677 19.948 8.54094 20.9147C8.58177 21.8089 8.73094 22.294 8.85677 22.6173C9.00344 23.0149 9.2376 23.3757 9.54177 23.6716C9.8376 23.9758 10.1984 24.2099 10.5959 24.3566C10.9193 24.4825 11.4043 24.6316 12.2984 24.6725C13.2651 24.7166 13.5543 24.7258 16.0026 24.7258C18.4509 24.7258 18.7401 24.7166 19.7068 24.6725C20.6009 24.6316 21.0859 24.4825 21.4093 24.3566C21.8368 24.1899 22.1426 23.9924 22.4634 23.6716C22.7676 23.3757 23.0018 23.0149 23.1484 22.6173C23.2743 22.294 23.4234 21.8089 23.4643 20.9147C23.5084 19.948 23.5176 19.658 23.5176 17.2103C23.5176 14.7626 23.5084 14.4726 23.4643 13.5059C23.4234 12.6116 23.2743 12.1266 23.1484 11.8032C22.9818 11.3757 22.7843 11.0698 22.4634 10.749C22.1675 10.4449 21.8074 10.2108 21.4093 10.0639C21.0859 9.9381 20.6009 9.78892 19.7068 9.74809ZM14.8318 20.0363C15.4857 20.3085 16.2138 20.3453 16.8917 20.1403C17.5697 19.9352 18.1554 19.5012 18.5489 18.9123C18.9425 18.3233 19.1193 17.616 19.0493 16.9112C18.9793 16.2063 18.6668 15.5476 18.1651 15.0476C17.8453 14.728 17.4586 14.4833 17.0329 14.331C16.6071 14.1788 16.153 14.1229 15.703 14.1672C15.2531 14.2116 14.8186 14.3552 14.4308 14.5877C14.043 14.8202 13.7116 15.1358 13.4604 15.5117C13.2092 15.8877 13.0444 16.3146 12.978 16.7619C12.9116 17.2091 12.9452 17.6656 13.0764 18.0983C13.2075 18.531 13.433 18.9292 13.7365 19.2644C14.0401 19.5995 14.4141 19.8631 14.8318 20.0363ZM12.6709 13.8784C13.1085 13.4408 13.6279 13.0937 14.1995 12.8569C14.7712 12.6201 15.3839 12.4983 16.0026 12.4983C16.6214 12.4983 17.234 12.6201 17.8057 12.8569C18.3773 13.0937 18.8968 13.4408 19.3343 13.8784C19.7718 14.3159 20.1189 14.8354 20.3556 15.4071C20.5924 15.9788 20.7143 16.5915 20.7143 17.2103C20.7143 17.8291 20.5924 18.4418 20.3556 19.0135C20.1189 19.5852 19.7718 20.1046 19.3343 20.5422C18.4507 21.4259 17.2522 21.9223 16.0026 21.9223C14.753 21.9223 13.5546 21.4259 12.6709 20.5422C11.7873 19.6585 11.2909 18.46 11.2909 17.2103C11.2909 15.9606 11.7873 14.7621 12.6709 13.8784ZM21.7593 13.2C21.8677 13.0977 21.9545 12.9747 22.0145 12.8383C22.0746 12.7019 22.1066 12.5548 22.1088 12.4057C22.111 12.2567 22.0832 12.1087 22.0272 11.9706C21.9711 11.8325 21.888 11.707 21.7826 11.6016C21.6772 11.4962 21.5517 11.413 21.4136 11.357C21.2755 11.3009 21.1275 11.2732 20.9785 11.2753C20.8295 11.2775 20.6824 11.3096 20.546 11.3696C20.4095 11.4297 20.2865 11.5165 20.1843 11.6249C19.9854 11.8358 19.8765 12.1159 19.8807 12.4057C19.8849 12.6956 20.0019 12.9724 20.2069 13.1774C20.4119 13.3823 20.6887 13.4994 20.9785 13.5036C21.2683 13.5078 21.5484 13.3989 21.7593 13.2Z" fill="#EB8347"/>
</svg>
