<svg width="33" height="34" viewBox="0 0 33 34" fill="none" xmlns="http://www.w3.org/2000/svg">
<path d="M32.5 16.7121C32.5 25.5493 25.3365 32.7133 16.5 32.7133C7.66348 32.7133 0.5 25.5493 0.5 16.7121C0.5 7.87487 7.66348 0.710938 16.5 0.710938C25.3365 0.710938 32.5 7.87487 32.5 16.7121Z" stroke="#EB8347"/>
<path d="M10.1515 13.2092C11.1585 13.2092 11.9748 12.3928 11.9748 11.3858C11.9748 10.3788 11.1585 9.5625 10.1515 9.5625C9.14446 9.5625 8.32812 10.3788 8.32812 11.3858C8.32812 12.3928 9.14446 13.2092 10.1515 13.2092Z" fill="#EB8347"/>
<path d="M13.6965 14.5898V24.7057H16.8373V19.7032C16.8373 18.3832 17.0856 17.1048 18.7223 17.1048C20.3365 17.1048 20.3565 18.614 20.3565 19.7865V24.7065H23.499V19.159C23.499 16.434 22.9123 14.3398 19.7273 14.3398C18.1981 14.3398 17.1731 15.179 16.754 15.9732H16.7115V14.5898H13.6965ZM8.57812 14.5898H11.724V24.7057H8.57812V14.5898Z" fill="#EB8347"/>
</svg>
