<svg width="215" height="60" viewBox="0 0 215 60" fill="none" xmlns="http://www.w3.org/2000/svg">
<path d="M0.757812 59.2064V0.722656H26.2452V8.9537H12.599V24.4772H23.1405V32.7804H12.599V51.1198H26.3896V59.2064H0.757812Z" fill="#626ECA"/>
<path d="M74.0859 60V0H88.7386C98.6968 0 106.379 2.88889 106.379 15.5556C106.379 22.8148 103.32 26.8148 97.9855 27.7778C104.743 28.8148 108.086 33.8519 108.086 42.3704C108.086 54.3704 102.182 60 91.2993 60H74.0859ZM85.7512 24.2222H88.7386C94.7135 24.2222 96.1361 21.3333 96.1361 15.8519C96.1361 10.3704 93.4332 8.37037 87.9562 8.37037H85.7512V24.2222ZM85.7512 51.4074H89.0943C94.998 51.4074 96.8474 48.3704 96.8474 42.1482C96.8474 35.3333 94.7847 32.4444 88.8809 32.4444H85.7512V51.4074Z" fill="#626ECA"/>
<path d="M51.2057 60C38.0649 60 34.0938 52.2022 34.0938 40.5054V19.5668C34.0938 7.50903 38.0649 0 51.2057 0C63.7688 0 67.5956 6.78701 67.5956 16.8953V21.8051H56.0432V16.3899C56.0432 12.2744 55.8988 8.51986 51.2778 8.51986C46.5125 8.51986 46.1515 12.4188 46.1515 16.7509V43.3213C46.1515 48.3033 47.0901 51.4802 51.2778 51.4802C55.8266 51.4802 56.0432 47.5812 56.0432 43.3213V37.6173H67.5956V42.4549C67.5956 52.6354 63.9855 60 51.2057 60Z" fill="#626ECA"/>
<path d="M121.348 3.472V5.146H116.488V8.818H120.808V10.492H116.488V14.326H121.348V16H114.436V3.472H121.348ZM128.411 13.894L132.137 3.49H134.297L129.599 16H127.223L122.507 3.49H124.703L128.411 13.894ZM142.565 3.472V5.146H137.705V8.818H142.025V10.492H137.705V14.326H142.565V16H135.653V3.472H142.565ZM151.375 7.234C151.375 5.974 150.655 5.164 149.053 5.164H146.785V9.358H149.053C150.655 9.358 151.375 8.476 151.375 7.234ZM144.733 3.49H149.053C152.023 3.49 153.481 5.2 153.481 7.234C153.481 8.71 152.689 10.294 150.583 10.816L153.679 16H151.231L148.351 10.996H146.785V16H144.733V3.49ZM158.824 11.464L154.666 3.49H156.952L159.85 9.628L162.748 3.49H165.016L160.876 11.464V16H158.824V11.464ZM178.38 9.718C178.38 13.48 175.554 16.126 171.99 16.126C168.462 16.126 165.6 13.48 165.6 9.718C165.6 5.974 168.462 3.328 171.99 3.328C175.554 3.328 178.38 5.974 178.38 9.718ZM167.706 9.718C167.706 12.544 169.506 14.344 171.99 14.344C174.474 14.344 176.274 12.544 176.274 9.718C176.274 6.892 174.474 5.128 171.99 5.128C169.506 5.128 167.706 6.892 167.706 9.718ZM188.266 3.472H190.318V16H188.266L182.092 6.658V16H180.04V3.472H182.092L188.266 12.796V3.472ZM199.564 3.472V5.146H194.704V8.818H199.024V10.492H194.704V14.326H199.564V16H192.652V3.472H199.564ZM113.752 29.718C113.752 25.974 116.614 23.328 120.142 23.328C122.752 23.328 125.002 24.642 125.956 27.09H123.49C122.824 25.758 121.636 25.128 120.142 25.128C117.658 25.128 115.858 26.892 115.858 29.718C115.858 32.544 117.658 34.326 120.142 34.326C121.636 34.326 122.824 33.696 123.49 32.364H125.956C125.002 34.812 122.752 36.108 120.142 36.108C116.614 36.108 113.752 33.48 113.752 29.718ZM136.44 36L135.54 33.444H130.302L129.402 36H127.26L131.742 23.472H134.118L138.6 36H136.44ZM134.964 31.77L132.93 25.956L130.878 31.77H134.964ZM148.415 23.472H150.467V36H148.415L142.241 26.658V36H140.189V23.472H142.241L148.415 32.796V23.472ZM121.492 52.418C121.492 51.176 120.556 50.42 119.188 50.42H116.488V54.326H119.26C120.646 54.326 121.492 53.624 121.492 52.418ZM121.168 46.964C121.168 45.83 120.358 45.164 119.026 45.164H116.488V48.746H119.026C120.358 48.746 121.168 48.116 121.168 46.964ZM123.544 52.634C123.544 54.542 121.996 56 119.44 56H114.436V43.49H119.206C121.852 43.49 123.256 44.948 123.256 46.712C123.256 48.224 122.338 49.142 121.132 49.574C122.464 49.808 123.544 51.14 123.544 52.634ZM137.51 49.718C137.51 53.48 134.684 56.126 131.12 56.126C127.592 56.126 124.73 53.48 124.73 49.718C124.73 45.974 127.592 43.328 131.12 43.328C134.684 43.328 137.51 45.974 137.51 49.718ZM126.836 49.718C126.836 52.544 128.636 54.344 131.12 54.344C133.604 54.344 135.404 52.544 135.404 49.718C135.404 46.892 133.604 45.128 131.12 45.128C128.636 45.128 126.836 46.892 126.836 49.718ZM145.811 47.234C145.811 45.974 145.091 45.164 143.489 45.164H141.221V49.358H143.489C145.091 49.358 145.811 48.476 145.811 47.234ZM139.169 43.49H143.489C146.459 43.49 147.917 45.2 147.917 47.234C147.917 48.71 147.125 50.294 145.019 50.816L148.115 56H145.667L142.787 50.996H141.221V56H139.169V43.49ZM156.824 47.234C156.824 45.974 156.104 45.164 154.502 45.164H152.234V49.358H154.502C156.104 49.358 156.824 48.476 156.824 47.234ZM150.182 43.49H154.502C157.472 43.49 158.93 45.2 158.93 47.234C158.93 48.71 158.138 50.294 156.032 50.816L159.128 56H156.68L153.8 50.996H152.234V56H150.182V43.49ZM173.291 49.718C173.291 53.48 170.465 56.126 166.901 56.126C163.373 56.126 160.511 53.48 160.511 49.718C160.511 45.974 163.373 43.328 166.901 43.328C170.465 43.328 173.291 45.974 173.291 49.718ZM162.617 49.718C162.617 52.544 164.417 54.344 166.901 54.344C169.385 54.344 171.185 52.544 171.185 49.718C171.185 46.892 169.385 45.128 166.901 45.128C164.417 45.128 162.617 46.892 162.617 49.718ZM177.488 56.018L173.942 43.49H176.12L178.712 53.678L181.52 43.49H183.824L186.434 53.624L189.044 43.49H191.24L187.532 56H185.21L182.582 46.532L179.792 56L177.488 56.018Z" fill="#EB8347"/>
</svg>
