<svg width="33" height="34" viewBox="0 0 33 34" fill="none" xmlns="http://www.w3.org/2000/svg">
<path d="M32.5 16.7121C32.5 25.5493 25.3365 32.7133 16.5 32.7133C7.66348 32.7133 0.5 25.5493 0.5 16.7121C0.5 7.87487 7.66348 0.710938 16.5 0.710938C25.3365 0.710938 32.5 7.87487 32.5 16.7121Z" stroke="#EB8347"/>
<g clip-path="url(#clip0_3157_4447)">
<path d="M22.9312 10.9551C21.6562 10.3801 20.2896 9.95508 18.8604 9.7134C18.8477 9.71095 18.8345 9.71253 18.8227 9.7179C18.8109 9.72328 18.8011 9.73219 18.7946 9.7434C18.6196 10.0509 18.4246 10.4518 18.2879 10.7685C16.7721 10.542 15.2312 10.542 13.7154 10.7685C13.5632 10.4175 13.3915 10.0753 13.2012 9.7434C13.1948 9.73205 13.185 9.72294 13.1733 9.71728C13.1615 9.71162 13.1483 9.70969 13.1354 9.71173C11.7071 9.95341 10.3404 10.3784 9.06457 10.9543C9.05359 10.9589 9.04429 10.9668 9.0379 10.9768C6.44457 14.7896 5.73373 18.5082 6.0829 22.1801C6.08387 22.1891 6.08666 22.1978 6.0911 22.2057C6.09555 22.2136 6.10154 22.2205 6.10873 22.2259C7.62239 23.328 9.31068 24.1676 11.1029 24.7094C11.1154 24.7133 11.1288 24.7133 11.1412 24.7094C11.1537 24.7056 11.1648 24.698 11.1729 24.6878C11.5586 24.172 11.9003 23.6247 12.1946 23.0518C12.1987 23.044 12.201 23.0354 12.2015 23.0266C12.2019 23.0177 12.2005 23.0089 12.1973 23.0007C12.194 22.9925 12.189 22.9851 12.1827 22.9789C12.1763 22.9728 12.1687 22.9681 12.1604 22.9652C11.6221 22.7624 11.1005 22.5178 10.6004 22.2334C10.5914 22.2283 10.5838 22.221 10.5784 22.2123C10.5729 22.2035 10.5697 22.1935 10.569 22.1831C10.5684 22.1728 10.5703 22.1625 10.5746 22.1531C10.5789 22.1437 10.5855 22.1355 10.5937 22.1293C10.6987 22.0518 10.8037 21.9709 10.9037 21.8901C10.9127 21.8828 10.9236 21.8782 10.9351 21.8767C10.9465 21.8752 10.9582 21.877 10.9687 21.8817C14.2412 23.3519 17.7854 23.3519 21.0196 21.8817C21.0301 21.8767 21.0419 21.8747 21.0536 21.8761C21.0652 21.8774 21.0762 21.882 21.0854 21.8892C21.1854 21.9709 21.2896 22.0518 21.3954 22.1293C21.4037 22.1354 21.4104 22.1434 21.4149 22.1528C21.4193 22.1621 21.4214 22.1724 21.4209 22.1827C21.4204 22.193 21.4174 22.2031 21.412 22.2119C21.4067 22.2208 21.3993 22.2282 21.3904 22.2334C20.8921 22.5201 20.3737 22.7626 19.8296 22.9643C19.8212 22.9674 19.8136 22.9721 19.8072 22.9784C19.8009 22.9846 19.7959 22.9921 19.7927 23.0003C19.7894 23.0086 19.788 23.0175 19.7885 23.0264C19.789 23.0353 19.7913 23.0439 19.7954 23.0518C20.0954 23.6244 20.4387 24.1694 20.8162 24.6869C20.8241 24.6976 20.835 24.7055 20.8475 24.7097C20.8601 24.7139 20.8736 24.7141 20.8862 24.7103C22.6815 24.1699 24.3726 23.33 25.8879 22.2259C25.8953 22.2208 25.9015 22.2141 25.9061 22.2063C25.9107 22.1986 25.9136 22.1899 25.9146 22.1809C26.3312 17.9356 25.2162 14.247 22.9571 10.9785C22.9515 10.9679 22.9424 10.9596 22.9312 10.9551ZM12.6837 19.9441C11.6987 19.9441 10.8862 19.0532 10.8862 17.9606C10.8862 16.8672 11.6829 15.9772 12.6837 15.9772C13.6921 15.9772 14.4971 16.8747 14.4812 17.9606C14.4812 19.0541 13.6846 19.9441 12.6837 19.9441ZM19.3296 19.9441C18.3437 19.9441 17.5321 19.0532 17.5321 17.9606C17.5321 16.8672 18.3279 15.9772 19.3296 15.9772C20.3379 15.9772 21.1429 16.8747 21.1271 17.9606C21.1271 19.0541 20.3387 19.9441 19.3296 19.9441Z" fill="#EB8347"/>
</g>
<defs>
<clipPath id="clip0_3157_4447">
<rect width="20" height="20.0014" fill="white" transform="translate(6 7.21094)"/>
</clipPath>
</defs>
</svg>
