<svg width="33" height="34" viewBox="0 0 33 34" fill="none" xmlns="http://www.w3.org/2000/svg">
<path d="M32.5 16.7121C32.5 25.5493 25.3365 32.7133 16.5 32.7133C7.66348 32.7133 0.5 25.5493 0.5 16.7121C0.5 7.87487 7.66348 0.710938 16.5 0.710938C25.3365 0.710938 32.5 7.87487 32.5 16.7121Z" stroke="#EB8347"/>
<path d="M25.7029 11.3247C25.0071 11.6331 24.2596 11.8414 23.4737 11.9356C24.2846 11.4504 24.8912 10.6867 25.1804 9.78712C24.4186 10.2396 23.5849 10.5582 22.7154 10.7289C22.1307 10.1045 21.3563 9.69072 20.5124 9.55166C19.6684 9.41261 18.8022 9.5561 18.0481 9.95984C17.2941 10.3636 16.6944 11.005 16.3422 11.7845C15.99 12.564 15.905 13.438 16.1004 14.2708C14.5568 14.1933 13.0468 13.792 11.6683 13.0931C10.2898 12.3942 9.07362 11.4132 8.09875 10.2138C7.76542 10.7889 7.57375 11.4556 7.57375 12.1656C7.57338 12.8048 7.73078 13.4342 8.03198 13.998C8.33319 14.5618 8.76888 15.0425 9.30042 15.3975C8.68398 15.3779 8.08114 15.2113 7.54208 14.9116V14.9616C7.54202 15.8582 7.85211 16.7271 8.41974 17.421C8.98736 18.1149 9.77756 18.591 10.6562 18.7686C10.0844 18.9234 9.48486 18.9462 8.90292 18.8353C9.15083 19.6067 9.63375 20.2812 10.2841 20.7645C10.9344 21.2478 11.7195 21.5156 12.5296 21.5304C11.1544 22.61 9.45616 23.1956 7.70792 23.1931C7.39823 23.1931 7.08881 23.1751 6.78125 23.1389C8.55581 24.2799 10.6215 24.8855 12.7312 24.8832C19.8729 24.8832 23.7771 18.9678 23.7771 13.8374C23.7771 13.6707 23.7729 13.5024 23.7654 13.3357C24.5248 12.7865 25.1803 12.1064 25.7013 11.3272L25.7029 11.3247Z" fill="#EB8347"/>
</svg>
